<?xml version="1.0" standalone="no"?>
<svg viewBox="0 0 200 200" xmlns="http://www.w3.org/2000/svg">
  <path fill="#0077FF" d="M44.8,-73.1C58.5,-69.8,70.2,-58.5,75,-45C79.8,-31.5,77.8,-15.7,75.1,-1.5C72.4,12.7,69.1,25.3,61.7,34.4C54.3,43.5,42.9,49,31.9,54.5C21,59.9,10.5,65.3,-2.2,69.2C-14.9,73,-29.8,75.2,-43,71C-56.1,66.8,-67.5,56.2,-73.5,43.3C-79.5,30.4,-80,15.2,-79.7,0.2C-79.4,-14.9,-78.4,-29.8,-72.8,-43.4C-67.3,-57,-57.2,-69.3,-44.3,-73.1C-31.4,-76.8,-15.7,-72,-0.1,-71.9C15.6,-71.8,31.2,-76.4,44.8,-73.1Z" transform="translate(100 100)" />
</svg>
