<?xml version="1.0" encoding="UTF-8"?>
<svg
  xmlns="http://www.w3.org/2000/svg"
  viewBox="0 0 128 128"
  role="img"
  aria-label="HTML5 Logo"
>
  <title>HTML5</title>

  <path
    fill="#E44D26"
    d="M19.037 113.876L9.032 1.661h109.936l-10.016 112.198-45.019 12.48z"
  />

  <path
    fill="#F16529"
    d="M64 116.8l36.378-10.086 8.559-95.878H64z"
  />

  <path
    fill="#EBEBEB"
    d="M64 52.455H45.788L44.53 38.361H64V24.599H29.489l.33 3.692 3.382 37.927H64zm0 35.743l-.061.017-15.327-4.14-.979-10.975H33.816l1.928 21.609 28.193 7.826.063-.017z"
  />

  <path
    fill="#FFFFFF"
    d="M64 52.455v13.763h16.947l-1.597 17.849L64 88.21v14.319l28.215-7.82 3.757-42.254zm0-27.856v13.762h31.938l.265-2.972.603-6.798.316-3.992z"
  />
</svg>
